<svg width="54" height="54" fill="none" xmlns="http://www.w3.org/2000/svg"><path fill-rule="evenodd" clip-rule="evenodd" d="M27.734 4.972c.36-.323.835-.492 1.321-.47 10.285.308 18.88 7.774 20.438 17.752.01.06.01.12 0 .18.033.472-.127.938-.444 1.294a1.826 1.826 0 0 1-1.248.605l-17.279 1.14a2.063 2.063 0 0 1-1.56-.518 1.982 1.982 0 0 1-.66-1.482L27.14 6.501v-.28c.021-.477.235-.927.594-1.25ZM26.55 29.91l14.977-.96.101.04c.644.01 1.256.271 1.703.725.447.454.692 1.063.681 1.694-.59 8.6-6.895 15.785-15.475 17.636-8.58 1.851-17.376-2.076-21.588-9.64a18.483 18.483 0 0 1-2.303-7.056 13.4 13.4 0 0 1-.143-2.22c.029-9.144 6.54-17.037 15.65-18.971a2.478 2.478 0 0 1 2.689 1.34c.12.18.215.375.285.58.17 2.635.348 5.246.524 7.846.14 2.054.279 4.1.413 6.147-.007.482.07.962.225 1.42a2.305 2.305 0 0 0 2.261 1.419Z" fill="#69B99D"/></svg>