<svg width="54" height="54" fill="none" xmlns="http://www.w3.org/2000/svg"><path fill-rule="evenodd" clip-rule="evenodd" d="M44.462 27.002c0 1.83 1.503 3.32 3.35 3.32a1.68 1.68 0 0 1 1.688 1.672v6.022c0 5.092-4.18 9.234-9.32 9.234H13.823c-5.14 0-9.322-4.142-9.322-9.234v-6.022a1.68 1.68 0 0 1 1.688-1.672c1.849 0 3.352-1.49 3.352-3.32 0-1.783-1.442-3.125-3.352-3.125-.448 0-.876-.177-1.193-.49a1.665 1.665 0 0 1-.495-1.183l.005-6.217c0-5.092 4.18-9.237 9.319-9.237h26.352c5.139 0 9.322 4.145 9.322 9.237l.002 6.024c0 .44-.178.869-.493 1.181-.317.314-.744.49-1.194.49-1.848 0-3.35 1.49-3.35 3.32Zm-12.395 1.456 2.653-2.56a1.62 1.62 0 0 0 .42-1.694 1.642 1.642 0 0 0-1.34-1.117l-3.666-.53-1.64-3.29a1.658 1.658 0 0 0-1.49-.922H27c-.635 0-1.206.353-1.492.919l-1.64 3.293-3.659.528c-.632.09-1.15.517-1.35 1.12a1.63 1.63 0 0 0 .421 1.694l2.653 2.56-.626 3.618a1.636 1.636 0 0 0 .664 1.616 1.668 1.668 0 0 0 1.748.123L27 32.108l3.275 1.703a1.65 1.65 0 0 0 1.755-.12c.52-.37.774-.99.666-1.614l-.628-3.619Z" fill="#69B99D"/></svg>