<svg width="54" height="54" fill="none" xmlns="http://www.w3.org/2000/svg"><path fill-rule="evenodd" clip-rule="evenodd" d="M7.875 23.215c0-10.35 8.649-18.715 19.11-18.715 10.491 0 19.14 8.365 19.14 18.715 0 5.215-1.897 10.057-5.019 14.161A49.647 49.647 0 0 1 28.64 48.943c-1.093.715-2.08.77-3.28 0a48.693 48.693 0 0 1-12.465-11.567C9.77 33.272 7.876 28.43 7.876 23.215Zm12.812.583c0 3.467 2.83 6.194 6.298 6.194 3.471 0 6.328-2.727 6.328-6.194 0-3.44-2.857-6.3-6.328-6.3-3.469 0-6.298 2.86-6.298 6.3Z" fill="#69B99D"/></svg>