<svg width="54" height="54" fill="none" xmlns="http://www.w3.org/2000/svg"><path fill-rule="evenodd" clip-rule="evenodd" d="M35.662 5.627c1.42 0 2.837.2 4.185.652 8.305 2.7 11.297 11.813 8.797 19.778a28.638 28.638 0 0 1-6.77 10.82 86.52 86.52 0 0 1-14.245 11.16l-.562.34-.585-.363a85.706 85.706 0 0 1-14.33-11.16 29.098 29.098 0 0 1-6.775-10.797c-2.542-7.965.45-17.078 8.845-19.825a10.168 10.168 0 0 1 2-.47h.27c.632-.093 1.26-.135 1.89-.135h.247c1.418.042 2.79.29 4.12.742h.133c.09.043.157.09.202.133.498.16.968.34 1.418.587l.855.383c.207.11.439.278.639.424.127.092.241.175.329.228l.111.065c.193.113.394.23.564.36 2.5-1.91 5.535-2.945 8.662-2.922Zm5.985 16.2a1.85 1.85 0 0 0 1.778-1.713v-.267c.067-3.153-1.843-6.008-4.748-7.11-.922-.318-1.935.18-2.272 1.125a1.84 1.84 0 0 0 1.125 2.315c1.442.54 2.407 1.96 2.407 3.532v.07a1.934 1.934 0 0 0 .428 1.395c.315.383.787.605 1.282.653Z" fill="#69B99D"/></svg>